<svg width="335" height="424" viewBox="0 0 335 424" fill="none" xmlns="http://www.w3.org/2000/svg">
<rect x="227.427" y="144" width="107.638" height="167.618" transform="rotate(7 227.427 144)" fill="#EF764D" fill-opacity="0.15"/>
<rect x="227.427" y="144" width="107.638" height="167.618" transform="rotate(7 227.427 144)" fill="#EF764D" fill-opacity="0.82"/>
<rect x="156.713" y="95" width="161.833" height="252.014" transform="rotate(7 156.713 95)" fill="#EF764D" fill-opacity="0.82"/>
<rect x="156.713" y="95" width="161.833" height="252.014" transform="rotate(7 156.713 95)" fill="#EF764D" fill-opacity="0.82"/>
<rect x="41.7521" y="46.786" width="234.311" height="319.737" rx="10.5" transform="rotate(7 41.7521 46.786)" fill="#FFFDFD" stroke="#5075FF" stroke-width="5"/>
<rect x="72.604" y="142" width="154.302" height="4.95696" rx="2.47848" transform="rotate(7 72.604 142)" fill="#5075FF"/>
<rect x="68.604" y="168" width="154.302" height="4.95696" rx="2.47848" transform="rotate(7 68.604 168)" fill="#5075FF"/>
<rect x="72.604" y="142" width="154.302" height="4.95696" rx="2.47848" transform="rotate(7 72.604 142)" fill="#5075FF"/>
<rect x="72.604" y="142" width="154.302" height="4.95696" rx="2.47848" transform="rotate(7 72.604 142)" fill="#5075FF"/>
<rect x="72.604" y="142" width="154.302" height="4.95696" rx="2.47848" transform="rotate(7 72.604 142)" fill="#5075FF"/>
<rect x="104.604" y="315" width="87.1061" height="4.95696" rx="2.47848" transform="rotate(7 104.604 315)" fill="#5075FF"/>
<rect x="65.604" y="194" width="154.302" height="4.95696" rx="2.47848" transform="rotate(7 65.604 194)" fill="#5075FF"/>
<rect x="61.604" y="218" width="154.302" height="4.95696" rx="2.47848" transform="rotate(7 61.604 218)" fill="#5075FF"/>
<rect x="57.604" y="244" width="154.302" height="4.95696" rx="2.47848" transform="rotate(7 57.604 244)" fill="#5075FF"/>
<rect x="61.604" y="218" width="154.302" height="4.95696" rx="2.47848" transform="rotate(7 61.604 218)" fill="#5075FF"/>
<rect x="61.604" y="218" width="154.302" height="4.95696" rx="2.47848" transform="rotate(7 61.604 218)" fill="#5075FF"/>
<rect x="61.604" y="218" width="154.302" height="4.95696" rx="2.47848" transform="rotate(7 61.604 218)" fill="#5075FF"/>
<rect x="61.604" y="218" width="154.302" height="4.95696" rx="2.47848" transform="rotate(7 61.604 218)" fill="#5075FF"/>
<rect x="54.604" y="270" width="154.302" height="4.95696" rx="2.47848" transform="rotate(7 54.604 270)" fill="#5075FF"/>
<rect x="65" y="71" width="65" height="65" rx="32.5" fill="#FD8A02"/>
<rect x="252" y="376" width="19" height="19" rx="9.5" fill="#FD8A02"/>
<rect x="234" y="414" width="10" height="10" rx="5" fill="#FD8A02"/>
<rect x="13" y="77.7173" width="110.839" height="21.5368" rx="6" transform="rotate(-25.5 13 77.7173)" fill="#EF764D"/>
<rect x="13" width="30" height="30" rx="15" fill="#FD8A02"/>
</svg>
